<svg width="219" height="235" xmlns="http://www.w3.org/2000/svg" xmlns:xlink="http://www.w3.org/1999/xlink"><defs><filter x="-22.7%" y="-16.4%" width="145.4%" height="132.8%" filterUnits="objectBoundingBox" id="c"><feOffset dy="4" in="SourceAlpha" result="shadowOffsetOuter1"/><feGaussianBlur stdDeviation="3.5" in="shadowOffsetOuter1" result="shadowBlurOuter1"/><feColorMatrix values="0 0 0 0 0 0 0 0 0 0 0 0 0 0 0 0 0 0 0.1 0" in="shadowBlurOuter1" result="shadowMatrixOuter1"/><feMerge><feMergeNode in="shadowMatrixOuter1"/><feMergeNode in="SourceGraphic"/></feMerge></filter><path d="m164.164 139.105-25.085.005c-1.657 0-3-1.293-3-2.889l.008-37.937c0-1.596 1.344-2.89 3-2.89l25.086-.005c1.656 0 3 1.293 2.999 2.889l-.007 37.937c0 1.596-1.344 2.89-3 2.89Z" id="a"/><mask id="b" maskContentUnits="userSpaceOnUse" maskUnits="objectBoundingBox" x="0" y="0" width="31.092" height="43.721" fill="#fff"><use xlink:href="#a"/></mask></defs><g fill="none" fill-rule="evenodd"><g transform="translate(22 39.989)"><path d="m5.796 88.83 47.82-5.022a5.096 5.096 0 0 1 3.673 1.034 4.675 4.675 0 0 1 1.8 3.206l7.606 72.311a4.674 4.674 0 0 1-1.093 3.51 5.094 5.094 0 0 1-3.378 1.774l-47.82 5.022a5.096 5.096 0 0 1-3.673-1.035 4.675 4.675 0 0 1-1.8-3.205L1.325 94.114a4.674 4.674 0 0 1 1.093-3.51 5.094 5.094 0 0 1 3.378-1.774Z" stroke="#FA0" stroke-width="1.5"/><use stroke="#FFA900" mask="url(#b)" stroke-width="3" stroke-dasharray="3.2" transform="rotate(14 151.626 117.25)" xlink:href="#a"/><path d="m94.436 11.442 44.987-9.555a4.842 4.842 0 0 1 3.574.613 4.44 4.44 0 0 1 2.018 2.849l14.472 68.028a4.438 4.438 0 0 1-.684 3.423 4.84 4.84 0 0 1-3.015 2.012l-44.987 9.554a4.842 4.842 0 0 1-3.574-.613 4.44 4.44 0 0 1-2.019-2.848L90.736 16.876a4.438 4.438 0 0 1 .685-3.422 4.84 4.84 0 0 1 3.015-2.012Z" stroke="#FFB6AD" stroke-width="1.5"/><g filter="url(#c)" transform="translate(25.52 18.226)"><path d="M85.647 131.143h-76.5c-5.051 0-9.147-3.881-9.147-8.668V8.668C0 3.881 4.096 0 9.147 0h76.5c5.051 0 9.147 3.881 9.147 8.668v113.807c0 4.787-4.096 8.668-9.147 8.668Z" fill="#FFF"/><path stroke="#707078" stroke-width="2.4" stroke-linecap="round" stroke-linejoin="round" d="M20.465 24.428h22.469M19.997 38.232h56.174M19.997 52.037h56.174"/><g transform="translate(17.554 69.023)" fill-rule="nonzero"><path d="M56.87 37.455H2.735C1.207 37.455 0 36.234 0 34.687V2.768C0 1.221 1.207 0 2.735 0H56.87c1.528 0 2.735 1.221 2.735 2.768v31.919c.08 1.547-1.207 2.768-2.735 2.768Z" fill="#FDE4DF"/><path d="m0 36.234 14.398-11.97 12.227 9.201 16.972-17.18 16.088 13.598v11.236a3.713 3.713 0 0 1-3.7 3.746H3.7c-2.091 0-3.7-1.71-3.7-3.746v-4.885Z" fill="#FFB6AD"/><ellipse fill="#FF6A58" cx="25.499" cy="15.226" rx="3.861" ry="3.908"/></g></g></g><g transform="translate(18)"><ellipse fill="#FFB6AD" cx="19.864" cy="20" rx="19.864" ry="20"/><ellipse fill="#F5AC00" cx="99.32" cy="22.424" rx="4.214" ry="4.242"/><ellipse fill="#F5AC00" cx="119.786" cy="13.939" rx="4.214" ry="4.242"/><ellipse fill="#F5AC00" cx="78.854" cy="13.939" rx="4.214" ry="4.242"/><ellipse fill="#FFB6AD" cx="58.388" cy="22.424" rx="4.214" ry="4.242"/></g><g stroke="#FFF" stroke-linecap="round" stroke-linejoin="round" stroke-width="2.539"><path d="M27.631 20h20.466M37.864 9.697v20.606"/></g></g></svg>